<?xml version="1.0" standalone="no"?>
<!DOCTYPE svg PUBLIC "-//W3C//DTD SVG 20010904//EN"
 "http://www.w3.org/TR/2001/REC-SVG-20010904/DTD/svg10.dtd">
<svg version="1.0" xmlns="http://www.w3.org/2000/svg"
 width="552.000000pt" height="493.000000pt" viewBox="0 0 552.000000 493.000000"
 preserveAspectRatio="xMidYMid meet">

<g transform="translate(0.000000,493.000000) scale(0.100000,-0.100000)"
fill="#000000" stroke="none">
<path d="M1079 4025 c-73 -38 -154 -119 -188 -186 -33 -66 -54 -152 -49 -200
l3 -31 70 59 c38 32 89 85 112 118 54 76 131 266 107 265 -5 -1 -30 -12 -55
-25z"/>
<path d="M4410 4040 c0 -19 41 -133 65 -181 33 -64 118 -165 156 -185 30 -15
31 -15 24 7 -6 17 -4 21 8 16 11 -4 13 0 9 15 -3 13 -1 19 5 15 14 -9 13 22
-3 72 -27 81 -95 162 -188 220 -51 32 -76 39 -76 21z"/>
<path d="M2020 3746 l-745 -232 -3 -509 c-3 -534 3 -654 40 -825 32 -150 73
-265 148 -415 131 -262 308 -471 565 -666 240 -182 535 -299 757 -299 119 0
291 35 329 67 9 7 18 10 21 7 4 -3 47 13 97 37 78 36 89 44 79 57 -11 13 -10
14 7 4 22 -11 60 2 50 18 -3 5 0 12 6 16 8 4 9 3 5 -4 -11 -18 8 -14 35 6 13
10 36 24 50 31 15 7 37 26 48 42 12 16 27 29 34 29 13 0 40 20 112 80 41 36
41 36 21 53 -12 10 -15 15 -8 12 7 -4 12 1 12 14 0 14 6 21 19 21 24 0 36 16
19 24 -7 4 -3 4 10 2 15 -3 22 0 19 7 -2 7 3 18 11 26 13 13 12 16 -2 21 -14
5 -14 7 4 23 11 9 31 17 45 17 14 0 25 5 25 11 0 5 5 7 11 3 7 -4 10 -1 7 7
-7 18 29 88 47 96 8 3 15 11 15 19 0 8 5 14 11 14 5 0 8 4 4 9 -3 6 -14 8 -25
6 -11 -2 -23 1 -26 7 -4 7 -2 8 4 4 16 -10 15 7 0 23 -7 7 -8 12 -3 11 23 -5
36 1 29 12 -4 7 -3 8 4 4 9 -5 9 -13 1 -27 -6 -12 -8 -23 -5 -27 3 -3 6 0 6 6
0 7 6 12 14 12 8 0 28 11 44 25 27 23 42 24 42 3 0 -5 -4 -6 -10 -3 -13 8 -13
-5 0 -25 8 -13 10 -12 10 3 0 10 4 15 10 12 6 -4 7 1 3 11 -4 11 -3 15 5 10 8
-5 8 1 1 23 -7 21 -7 35 0 48 6 10 11 12 11 6 0 -7 5 -13 11 -13 6 0 8 9 4 20
-7 21 10 28 18 8 3 -7 6 -4 6 7 1 17 3 17 11 5 7 -12 10 -8 10 15 0 19 -3 25
-8 17 -6 -8 -9 -2 -9 18 0 17 4 26 7 19 11 -16 21 5 14 28 -5 15 -4 15 5 3 9
-12 11 -13 11 -1 0 8 3 12 6 9 3 -4 0 -16 -6 -28 -9 -17 -9 -21 0 -18 11 3 71
132 68 146 -1 4 8 27 20 52 11 24 18 48 15 52 -2 5 0 14 5 21 6 7 13 26 16 42
3 17 12 60 20 96 31 137 37 280 34 793 l-3 509 -745 233 c-410 129 -754 233
-765 233 -11 0 -355 -105 -765 -233z m1124 -25 c193 -60 501 -155 684 -212
l334 -103 -4 -530 c-4 -503 -5 -537 -27 -639 -12 -60 -36 -147 -52 -195 -17
-48 -31 -94 -32 -102 -1 -8 -4 -17 -7 -20 -15 -15 -59 -121 -48 -115 7 4 4 -1
-6 -9 -11 -9 -16 -16 -10 -16 5 0 1 -5 -9 -11 -9 -6 -15 -15 -12 -20 4 -5 10
-7 15 -4 5 3 2 -8 -6 -25 -9 -16 -21 -33 -27 -37 -9 -5 -9 -3 -1 8 17 22 24
49 14 49 -6 0 -10 -6 -10 -14 0 -7 -7 -19 -15 -26 -8 -7 -14 -20 -13 -29 2 -8
-3 -16 -9 -16 -7 0 -13 -3 -13 -7 0 -5 -9 -17 -20 -28 -12 -12 -18 -26 -14
-32 4 -7 3 -8 -4 -4 -7 4 -12 3 -12 -2 0 -5 -20 -32 -45 -58 -68 -73 -89 -103
-69 -100 8 1 20 9 25 17 7 11 9 11 9 -3 0 -18 -3 -19 -38 -22 -25 -1 -53 -26
-45 -39 3 -5 2 -7 -4 -4 -5 4 -19 -4 -31 -16 -11 -12 -32 -30 -46 -40 -15 -11
-24 -23 -20 -30 4 -7 4 -9 -1 -5 -7 7 -96 -58 -104 -75 -2 -5 -13 -13 -25 -18
-11 -5 -48 -27 -81 -49 -87 -57 -215 -117 -335 -158 -213 -71 -405 -52 -650
66 -379 182 -695 521 -849 910 -101 253 -111 341 -111 953 l0 495 528 164
c290 90 595 185 677 211 83 26 154 48 159 48 4 1 166 -48 360 -108z m1063
-1678 c-3 -10 -5 -4 -5 12 0 17 2 24 5 18 2 -7 2 -21 0 -30z m-17 -8 c0 -5 -5
-3 -10 5 -5 8 -10 20 -10 25 0 6 5 3 10 -5 5 -8 10 -19 10 -25z m-133 -177
c-3 -7 -5 -2 -5 12 0 14 2 19 5 13 2 -7 2 -19 0 -25z m96 17 c-3 -9 -8 -14
-10 -11 -3 3 -2 9 2 15 9 16 15 13 8 -4z m-132 -52 c-12 -20 -14 -14 -5 12 4
9 9 14 11 11 3 -2 0 -13 -6 -23z m-15 -106 c14 17 14 16 4 -4 -8 -17 -8 -29 0
-44 7 -11 9 -23 6 -26 -6 -6 -37 64 -35 81 1 6 3 3 6 -7 5 -18 5 -18 19 0z
m-16 -63 c0 -3 -7 -1 -15 6 -8 7 -15 17 -15 22 0 5 7 3 15 -6 8 -8 15 -18 15
-22z m-177 -139 c-10 -13 -22 -25 -27 -25 -5 0 1 11 14 25 30 32 36 32 13 0z
m-133 -175 c-8 -5 -17 -7 -19 -4 -3 3 1 9 9 14 8 5 17 7 19 4 3 -3 -1 -9 -9
-14z m0 -116 c0 -8 -41 3 -52 14 -10 10 -6 10 20 1 17 -6 32 -13 32 -15z m-43
-12 c14 -9 8 -19 -27 -47 -14 -11 -20 -13 -13 -6 6 7 9 20 6 27 -4 10 0 12 11
8 9 -3 16 -2 16 4 0 6 -6 13 -12 15 -7 3 -8 6 -3 6 6 0 15 -3 22 -7z m-62 -62
c3 -5 2 -10 -4 -10 -5 0 -13 5 -16 10 -3 6 -2 10 4 10 5 0 13 -4 16 -10z m-99
-76 c18 -14 18 -14 -6 -3 -31 14 -36 19 -24 19 6 0 19 -7 30 -16z m-56 -34
c-20 -13 -33 -13 -25 0 3 6 14 10 23 10 15 0 15 -2 2 -10z"/>
<path d="M2132 3542 l-633 -197 4 -510 c4 -478 5 -516 25 -606 59 -262 170
-483 344 -686 184 -214 419 -377 663 -459 207 -70 385 -58 605 41 75 34 94 47
92 62 -2 13 0 14 6 5 5 -7 16 -10 25 -6 23 8 22 25 0 17 -10 -3 -16 -4 -13 -2
46 39 47 39 47 24 0 -8 -5 -11 -10 -8 -6 3 -7 1 -3 -6 4 -6 13 -8 19 -3 7 4
29 18 50 31 36 22 48 41 26 41 -5 0 -7 -6 -3 -13 4 -6 3 -8 -1 -4 -5 4 -10 14
-11 23 -2 13 1 13 23 -1 14 -10 23 -12 19 -7 -3 6 4 14 16 18 13 3 40 22 60
40 33 29 36 35 23 48 -10 9 -11 17 -5 21 5 3 10 2 10 -3 0 -6 7 -12 14 -15 10
-4 13 -1 10 8 -4 8 7 28 24 44 16 17 28 31 27 33 -2 2 3 8 10 15 10 9 13 6 13
-13 0 -13 -4 -24 -9 -24 -12 0 -49 -37 -49 -49 0 -5 20 9 44 32 24 23 40 44
36 47 -12 8 -6 43 8 48 18 6 14 22 -5 22 -15 0 -16 2 -3 10 23 15 44 -17 24
-37 -7 -8 -14 -20 -14 -26 0 -23 73 61 75 87 3 28 21 56 36 56 5 0 6 -8 2 -17
-4 -11 2 -9 14 7 22 25 21 40 0 40 -7 0 -6 -4 3 -10 8 -5 13 -10 10 -11 -34
-6 -50 -4 -50 9 0 14 50 68 50 54 0 -4 9 12 20 36 10 23 24 42 30 42 6 0 8 5
4 12 -4 6 -3 8 4 4 7 -4 9 6 8 28 -3 36 16 41 28 9 8 -21 -3 -31 -14 -14 -6
10 -8 7 -8 -10 0 -13 -2 -33 -4 -44 -3 -11 -3 -14 -1 -7 3 6 9 12 14 12 6 0 8
4 5 9 -3 4 3 16 14 26 18 16 18 19 3 41 -10 16 -11 24 -4 24 6 0 15 10 20 22
l8 22 5 -22 c4 -14 2 -20 -4 -15 -7 4 -8 1 -4 -6 8 -12 21 -7 21 7 1 4 7 18
14 31 9 17 10 26 2 34 -8 8 -11 7 -11 -3 0 -7 -2 -11 -5 -8 -3 3 -2 13 1 22 5
14 9 15 15 4 7 -10 11 -7 15 10 4 12 11 22 16 22 6 0 8 7 4 15 -3 8 -1 15 4
15 12 0 43 109 36 127 -4 9 -2 11 6 7 7 -5 9 0 6 14 -4 12 -3 22 2 22 10 0 33
147 25 160 -4 6 -2 17 4 24 8 9 10 155 9 487 l-3 473 -630 198 c-346 108 -639
197 -650 197 -11 0 -305 -89 -653 -197z m1134 -191 l310 -162 107 -262 c58
-144 125 -308 148 -364 23 -57 40 -105 38 -107 -3 -3 -48 17 -102 45 l-97 50
0 -375 c0 -370 -3 -407 -32 -378 -6 6 -13 31 -15 56 -3 25 -9 43 -13 41 -5 -3
-15 16 -24 41 -15 43 -14 60 20 322 19 151 34 284 32 295 -2 12 -47 41 -145
92 -79 41 -143 73 -143 71 0 -2 47 -38 105 -80 58 -43 105 -81 105 -86 0 -4
-35 -37 -77 -73 -127 -106 -138 -121 -158 -212 -9 -44 -27 -105 -39 -135 -21
-52 -40 -82 -166 -270 -60 -91 -114 -215 -144 -333 l-23 -88 -64 108 c-83 140
-91 162 -93 260 -1 99 7 112 116 196 130 98 252 211 277 256 15 27 25 66 29
107 3 37 9 61 14 58 27 -17 -45 138 -79 170 -15 14 -36 51 -48 83 -18 53 -24
59 -73 82 -29 14 -50 31 -48 37 3 7 -17 16 -49 23 -30 7 -76 23 -102 37 -29
14 -65 24 -91 24 -26 0 -41 4 -37 10 4 6 -8 11 -27 12 -53 2 -192 -3 -210 -8
-14 -4 -16 -1 -11 12 4 12 -13 6 -67 -22 -61 -32 -76 -45 -86 -74 -11 -31 -13
-32 -14 -10 -2 21 -3 19 -10 -10 -6 -24 -4 -45 6 -69 11 -27 12 -42 3 -69 -6
-19 -9 -52 -6 -75 7 -51 -25 -156 -55 -183 -13 -12 -38 -27 -55 -34 -38 -14
-42 -36 -13 -73 22 -27 26 -62 10 -72 -7 -4 -8 -11 -1 -18 5 -7 10 -23 10 -37
6 -143 17 -163 101 -176 66 -10 79 -20 106 -79 24 -53 53 -168 54 -213 l0 -22
-41 20 c-23 12 -43 19 -46 17 -2 -3 12 -29 31 -60 l35 -54 -40 -18 c-21 -10
-41 -16 -43 -14 -2 2 -14 24 -26 49 -28 55 -104 170 -180 270 -138 182 -199
326 -207 491 -20 371 259 698 629 737 46 5 101 7 123 5 38 -4 44 -1 143 87 57
51 105 90 106 88 9 -11 113 -188 125 -211 8 -15 15 -26 17 -24 2 2 -41 113
-96 247 -55 134 -100 248 -100 253 0 5 19 -2 43 -16 23 -13 182 -97 353 -186z
m761 -1133 c-3 -8 -6 -5 -6 6 -1 11 2 17 5 13 3 -3 4 -12 1 -19z m-83 -198
c-10 -16 -19 -28 -21 -26 -6 6 20 56 29 56 5 0 1 -13 -8 -30z m-248 -426 c-3
-9 -1 -12 4 -9 12 7 13 -5 2 -20 -16 -23 -32 -15 -26 12 3 16 6 37 5 48 0 19
1 19 10 2 6 -10 8 -25 5 -33z m24 36 c0 -5 -4 -10 -10 -10 -5 0 -10 5 -10 10
0 6 5 10 10 10 6 0 10 -4 10 -10z m-150 -154 c0 -2 -7 -7 -16 -10 -8 -3 -12
-2 -9 4 6 10 25 14 25 6z m-90 -107 c0 7 4 9 10 6 6 -4 1 -15 -10 -27 -16 -18
-23 -19 -33 -9 -10 10 -8 11 6 6 10 -4 17 -2 17 4 0 6 -4 11 -10 11 -5 0 -10
5 -10 11 0 8 5 8 15 -1 11 -9 15 -9 15 -1z m-47 -46 c3 -5 -11 -9 -31 -10 -32
-1 -34 0 -12 7 34 11 38 11 43 3z m-158 -83 c-3 -5 -12 -10 -18 -10 -7 0 -6 4
3 10 19 12 23 12 15 0z"/>
<path d="M3890 1871 c0 -6 4 -13 10 -16 6 -3 7 1 4 9 -7 18 -14 21 -14 7z"/>
<path d="M3800 1726 c0 -9 -7 -19 -15 -22 -12 -5 -13 -10 -4 -20 14 -18 30 -8
22 13 -4 10 -2 14 4 10 6 -4 17 1 24 11 7 9 9 14 5 10 -5 -4 -15 -3 -23 3 -10
9 -13 8 -13 -5z"/>
<path d="M645 3824 c-65 -157 -59 -304 16 -370 31 -27 57 -36 65 -23 14 24 35
149 36 215 0 77 -24 148 -64 191 -29 31 -35 29 -53 -13z"/>
<path d="M4841 3825 c-42 -49 -65 -132 -58 -215 5 -59 33 -189 42 -199 2 -2
17 6 34 18 36 26 75 86 65 102 -5 8 -3 9 6 4 10 -6 12 -4 7 8 -3 9 -2 19 3 22
13 8 12 87 0 145 -13 58 -50 150 -60 150 -4 0 -22 -16 -39 -35z"/>
<path d="M4691 3685 c0 -11 4 -27 9 -35 9 -13 10 -13 9 0 0 8 -4 24 -9 35 l-9
20 0 -20z"/>
<path d="M959 3604 c-25 -7 -66 -31 -90 -53 -46 -40 -117 -147 -105 -158 3 -4
34 -6 68 -5 69 2 141 32 193 80 38 35 105 113 105 123 0 8 -80 29 -107 28 -10
0 -39 -7 -64 -15z"/>
<path d="M4453 3609 c-18 -5 -33 -13 -33 -18 0 -5 18 -31 40 -58 59 -75 128
-123 198 -138 30 -6 37 -3 63 27 21 23 28 27 24 13 -6 -18 -6 -18 5 -2 9 14 5
26 -23 65 -74 100 -173 140 -274 111z"/>
<path d="M486 3471 c-31 -134 -14 -240 49 -304 20 -21 40 -37 45 -37 6 0 13 0
18 0 4 0 7 3 7 8 0 4 9 29 19 56 23 60 18 161 -11 226 -19 42 -87 120 -104
120 -4 0 -15 -31 -23 -69z"/>
<path d="M4993 3498 c-69 -71 -87 -123 -87 -256 0 -72 4 -116 12 -124 18 -18
55 4 100 60 44 57 69 145 59 214 -10 73 -28 148 -36 148 -4 0 -26 -19 -48 -42z"/>
<path d="M4766 3407 c3 -10 9 -15 12 -12 3 3 0 11 -7 18 -10 9 -11 8 -5 -6z"/>
<path d="M868 3340 c-54 -16 -101 -54 -139 -112 -40 -62 -65 -125 -55 -135 3
-4 34 -1 68 5 98 18 176 82 244 200 16 29 17 34 4 42 -18 12 -84 11 -122 0z"/>
<path d="M4558 3342 c-16 -6 -15 -12 13 -61 52 -90 129 -157 202 -175 24 -6
30 -3 34 13 3 12 9 18 14 15 5 -3 9 2 9 11 0 9 5 13 10 10 16 -10 12 12 -9 53
-23 45 -74 98 -115 119 -33 17 -132 27 -158 15z"/>
<path d="M392 3083 c3 -96 8 -126 25 -158 27 -52 77 -100 94 -90 8 5 10 4 5
-3 -4 -7 -2 -13 3 -13 21 -3 26 -4 39 -13 8 -5 18 -4 25 3 9 9 7 10 -8 5 -11
-4 -17 -4 -13 1 4 4 3 14 -2 20 -7 8 -5 24 6 50 12 30 13 47 4 89 -17 82 -56
152 -107 191 -73 56 -76 53 -71 -82z m162 -251 c3 -5 -1 -9 -9 -9 -8 0 -12 4
-9 9 3 4 7 8 9 8 2 0 6 -4 9 -8z"/>
<path d="M5098 3171 c-79 -50 -122 -144 -134 -295 l-7 -85 37 11 c51 16 107
67 136 124 20 40 25 68 28 152 3 57 0 108 -5 113 -5 5 -27 -2 -55 -20z"/>
<path d="M629 3155 c-1 -3 -2 -8 -3 -12 -1 -5 -5 -15 -10 -23 -7 -12 -6 -13 4
-3 13 12 23 43 14 43 -2 0 -5 -2 -5 -5z"/>
<path d="M4848 3132 c7 -5 10 -16 6 -28 -6 -15 -4 -17 6 -7 15 14 7 43 -12 43
-11 0 -11 -2 0 -8z"/>
<path d="M821 3070 c-80 -19 -154 -103 -182 -205 -5 -22 -12 -48 -15 -57 -12
-41 109 -2 174 57 45 41 122 168 122 203 0 13 -47 14 -99 2z"/>
<path d="M4630 3069 c0 -20 54 -132 81 -168 39 -53 149 -113 149 -81 0 7 8 10
20 7 11 -3 20 -1 20 4 0 5 -7 9 -16 9 -8 0 -12 5 -9 10 4 6 11 7 17 4 21 -13
0 68 -29 115 -37 60 -104 100 -177 108 -44 5 -56 3 -56 -8z"/>
<path d="M340 2808 c0 -145 76 -279 170 -302 14 -3 20 -3 13 0 -13 6 -8 14 30
53 17 17 16 21 -3 84 -31 100 -111 190 -187 212 -22 6 -23 4 -23 -47z"/>
<path d="M5155 2836 c-90 -41 -150 -133 -178 -271 -13 -66 -13 -70 5 -73 64
-11 163 70 197 161 18 51 41 207 30 207 -2 0 -27 -11 -54 -24z"/>
<path d="M4906 2813 c-6 -14 -5 -15 5 -6 7 7 10 15 7 18 -3 3 -9 -2 -12 -12z"/>
<path d="M807 2796 c-61 -17 -116 -61 -145 -118 -23 -45 -50 -173 -39 -185 13
-12 101 31 143 69 47 43 94 139 102 205 5 48 6 47 -61 29z"/>
<path d="M4670 2803 c0 -20 29 -112 47 -153 32 -70 122 -150 150 -132 5 4 15
17 22 30 7 13 17 20 23 16 8 -5 9 -1 4 12 -4 10 -9 31 -11 46 -9 61 -57 128
-115 158 -40 20 -120 36 -120 23z"/>
<path d="M572 2515 c0 -16 2 -22 5 -12 2 9 2 23 0 30 -3 6 -5 -1 -5 -18z"/>
<path d="M811 2523 c-61 -22 -116 -80 -135 -144 -15 -49 -23 -189 -11 -189 3
0 23 9 44 20 52 26 112 97 134 156 20 56 34 174 21 173 -5 0 -29 -8 -53 -16z"/>
<path d="M4680 2498 c0 -47 20 -130 40 -168 18 -36 70 -89 104 -107 15 -8 25
-10 22 -4 -4 6 -3 11 2 11 5 0 8 11 7 24 -2 14 3 27 11 30 10 4 13 2 8 -7 -5
-9 -4 -9 6 0 17 15 -3 104 -36 160 -25 43 -84 85 -136 97 -27 6 -28 5 -28 -36z"/>
<path d="M4913 2512 c0 -12 5 -22 9 -22 11 0 10 12 -2 30 -7 12 -9 10 -7 -8z"/>
<path d="M335 2478 c20 -114 71 -212 133 -252 65 -42 77 -42 96 1 15 34 16 35
11 8 l-5 -30 14 24 c9 16 11 34 6 50 -35 121 -122 209 -233 235 l-29 7 7 -43z"/>
<path d="M5125 2486 c-84 -39 -158 -142 -193 -270 l-11 -39 49 6 c59 7 97 26
141 69 40 40 85 135 97 206 9 49 8 52 -12 52 -11 0 -43 -11 -71 -24z"/>
<path d="M860 2257 c-57 -30 -78 -50 -105 -98 -22 -42 -27 -64 -28 -122 0 -76
10 -137 22 -137 17 0 93 75 116 115 40 67 60 255 27 255 -4 0 -18 -6 -32 -13z"/>
<path d="M4642 2183 c5 -110 36 -185 97 -234 46 -36 68 -44 68 -23 0 10 -4 11
-14 3 -17 -14 -17 2 0 20 7 9 8 12 0 7 -8 -4 -8 0 0 18 7 13 15 22 19 20 12
-7 10 85 -3 129 -17 64 -105 147 -155 147 -14 0 -16 -11 -12 -87z"/>
<path d="M600 2190 c0 -5 5 -10 10 -10 6 0 10 5 10 10 0 6 -4 10 -10 10 -5 0
-10 -4 -10 -10z"/>
<path d="M376 2153 c22 -89 86 -190 141 -225 21 -12 40 -23 43 -24 3 0 12 -3
20 -6 35 -14 58 -15 54 -4 -2 6 2 20 10 31 14 19 15 19 10 -5 l-5 -25 14 24
c8 14 12 32 9 40 -12 36 -77 124 -113 155 -39 33 -121 66 -165 66 -22 0 -24
-3 -18 -27z"/>
<path d="M5105 2170 c-53 -12 -112 -48 -153 -95 -43 -49 -115 -178 -105 -189
10 -10 77 -7 114 6 56 19 102 55 137 106 31 45 85 163 78 170 -8 7 -44 8 -71
2z"/>
<path d="M4575 2003 c-4 -10 -9 -54 -12 -99 -7 -106 13 -169 74 -233 l45 -46
14 34 c8 19 12 36 9 39 -3 3 -5 -1 -5 -8 0 -7 -3 -10 -7 -7 -3 4 2 16 11 26
13 14 18 37 18 85 0 96 -34 160 -113 210 -25 16 -27 16 -34 -1z"/>
<path d="M924 1991 c-97 -59 -128 -197 -75 -333 14 -36 23 -35 60 7 59 68 76
112 76 205 0 85 -9 140 -23 140 -4 0 -21 -9 -38 -19z"/>
<path d="M680 1923 c0 -7 0 -16 1 -19 0 -4 -5 -11 -13 -15 -8 -5 -9 -9 -2 -9
20 0 34 24 24 40 -7 10 -10 11 -10 3z"/>
<path d="M460 1838 c0 -26 64 -123 111 -169 27 -26 63 -52 81 -57 50 -15 98
-22 97 -14 -4 22 4 34 26 44 13 6 22 15 19 20 -3 4 -10 6 -15 3 -5 -3 -6 0 -4
7 9 22 -90 124 -147 152 -58 29 -168 38 -168 14z"/>
<path d="M4943 1833 c-54 -19 -127 -84 -181 -162 l-43 -61 28 -11 c36 -14 121
-6 163 16 48 25 112 95 148 163 18 33 32 63 32 66 0 12 -106 4 -147 -11z"/>
<path d="M4100 1791 c0 -5 5 -13 10 -16 6 -3 10 -2 10 4 0 5 -4 13 -10 16 -5
3 -10 2 -10 -4z"/>
<path d="M1028 1738 c-55 -52 -73 -93 -72 -173 0 -55 6 -83 29 -134 l29 -64
32 37 c41 48 64 114 64 186 0 53 -23 156 -39 173 -4 4 -23 -8 -43 -25z"/>
<path d="M4463 1733 c-9 -22 -18 -76 -21 -129 -4 -79 -1 -96 18 -135 23 -45
58 -89 71 -89 12 0 46 83 59 143 10 50 9 66 -5 109 -18 57 -48 101 -82 124
-23 14 -24 14 -40 -23z"/>
<path d="M4030 1690 c0 -31 15 -40 29 -19 9 15 9 19 1 14 -7 -4 -16 -1 -21 6
-7 12 -9 11 -9 -1z"/>
<path d="M788 1613 c7 -3 16 -2 19 1 4 3 -2 6 -13 5 -11 0 -14 -3 -6 -6z"/>
<path d="M3938 1568 c0 -13 -1 -31 0 -40 1 -10 -4 -17 -10 -15 -12 2 -14 -3
-17 -38 0 -8 -6 -15 -12 -15 -6 0 -8 7 -5 17 6 15 4 15 -14 -2 -24 -22 -26
-29 -5 -21 21 8 19 -6 -5 -32 -12 -12 -17 -22 -12 -22 11 0 68 71 65 82 -2 4
8 15 21 24 33 21 59 61 41 61 -8 0 -13 -3 -12 -6 1 -3 -2 -7 -8 -8 -5 -1 -9 4
-7 12 1 7 -2 16 -8 20 -6 3 -11 -4 -12 -17z m22 -39 c0 -6 -4 -7 -10 -4 -5 3
-10 11 -10 16 0 6 5 7 10 4 6 -3 10 -11 10 -16z"/>
<path d="M613 1544 c-31 -7 -29 -18 12 -74 69 -94 153 -149 229 -150 31 0 37
3 32 16 -4 12 -1 14 14 9 15 -5 18 -3 14 9 -4 11 0 13 14 9 39 -10 31 16 -23
69 -74 73 -137 107 -211 112 -33 3 -69 2 -81 0z"/>
<path d="M4815 1541 c-60 -16 -119 -54 -188 -124 l-71 -71 29 -12 c17 -7 56
-13 88 -14 68 0 125 23 178 72 51 46 112 129 102 139 -12 12 -104 19 -138 10z"/>
<path d="M1172 1509 c-46 -49 -66 -107 -59 -173 8 -75 75 -205 98 -190 16 9
50 84 44 94 -3 6 -1 10 6 10 8 0 10 23 7 83 -4 63 -12 97 -34 146 l-30 65 -32
-35z"/>
<path d="M4317 1482 c-34 -76 -50 -148 -42 -197 7 -48 50 -145 64 -145 19 0
61 74 82 142 18 57 19 75 10 118 -11 53 -44 111 -72 128 -14 9 -21 2 -42 -46z"/>
<path d="M3779 1390 c-7 -5 -10 -12 -6 -17 5 -4 12 -1 17 7 5 8 13 11 17 6 4
-5 2 -11 -5 -13 -9 -3 -10 -9 -3 -17 7 -8 4 -16 -10 -24 -10 -7 -19 -8 -19 -3
0 5 6 11 13 14 6 2 9 8 5 12 -10 11 -21 0 -23 -24 -1 -17 -47 -81 -59 -81 -2
0 -6 8 -8 18 -3 14 -5 14 -10 -4 -8 -30 20 -27 60 7 18 16 33 32 33 36 1 5 10
14 20 21 11 7 19 20 19 28 0 8 4 12 10 9 6 -4 7 1 3 11 -5 13 -3 15 8 9 8 -4
11 -4 7 0 -11 12 -52 15 -69 5z"/>
<path d="M1352 1318 c-27 -33 -52 -106 -52 -154 0 -63 43 -154 96 -204 20 -19
34 -29 30 -22 -4 6 -2 12 4 12 6 0 8 5 5 10 -3 6 -1 10 5 10 6 0 9 4 6 9 -3 5
2 23 10 41 23 45 14 122 -23 201 -16 35 -39 75 -49 88 -17 19 -22 21 -32 9z"/>
<path d="M4149 1283 c-46 -66 -69 -134 -69 -201 0 -59 25 -152 40 -152 14 0
79 81 102 129 34 69 32 161 -5 224 -15 26 -30 47 -32 47 -2 0 -18 -21 -36 -47z"/>
<path d="M806 1257 c-22 -7 -41 -17 -43 -23 -6 -17 109 -118 163 -144 46 -23
160 -38 149 -20 -3 5 -1 11 5 15 5 3 10 1 10 -4 0 -6 5 -11 10 -11 6 0 10 7
10 16 0 10 6 14 14 11 8 -3 21 0 30 6 13 10 8 19 -42 60 -104 87 -218 122
-306 94z"/>
<path d="M4597 1256 c-49 -14 -165 -86 -206 -130 l-23 -24 33 -18 c52 -28 161
-25 222 5 56 27 172 134 163 149 -6 11 -93 33 -124 31 -9 0 -39 -6 -65 -13z"/>
<path d="M1534 1098 c-25 -56 -25 -141 1 -193 19 -39 117 -145 134 -145 5 0 8
11 7 24 0 13 -4 22 -8 20 -4 -3 -5 2 -2 10 3 9 9 16 13 16 4 0 8 6 9 13 1 6 5
29 8 49 5 27 0 50 -19 90 -24 53 -102 158 -116 158 -5 0 -17 -19 -27 -42z"/>
<path d="M3954 1107 c-51 -57 -93 -131 -104 -182 -11 -51 -6 -125 12 -158 8
-16 12 -15 49 14 51 40 119 143 121 183 3 73 -21 176 -42 176 -4 0 -21 -15
-36 -33z"/>
<path d="M3519 1083 c-13 -16 -12 -17 4 -4 16 13 21 21 13 21 -2 0 -10 -8 -17
-17z"/>
<path d="M1075 1014 c-44 -11 -105 -36 -105 -44 0 -16 84 -81 140 -108 66 -33
179 -38 220 -11 14 9 27 16 30 15 3 -1 13 6 22 14 14 14 12 18 -28 46 -89 64
-215 103 -279 88z"/>
<path d="M4366 1009 c-69 -16 -216 -98 -216 -120 0 -6 25 -22 56 -36 102 -46
198 -25 322 70 63 48 59 58 -33 82 -66 17 -73 17 -129 4z"/>
<path d="M1762 941 c-32 -105 10 -209 114 -279 42 -29 91 -48 77 -30 -6 7 -13
25 -15 41 -5 23 -3 25 10 15 13 -11 14 -10 3 10 -7 13 -10 26 -7 30 3 3 6 0 6
-7 0 -7 5 -9 10 -6 14 8 3 50 -28 107 -24 46 -131 158 -150 158 -5 0 -14 -17
-20 -39z m165 -293 c-3 -8 -6 -5 -6 6 -1 11 2 17 5 13 3 -3 4 -12 1 -19z"/>
<path d="M3697 921 c-88 -83 -117 -141 -117 -238 0 -40 2 -73 5 -73 18 0 75
38 118 78 74 70 103 139 91 218 -12 83 -22 84 -97 15z"/>
<path d="M2016 828 c-18 -69 3 -146 56 -204 46 -50 136 -100 152 -84 8 8 6 14
-4 20 -8 5 -10 10 -4 10 5 0 15 -5 21 -11 7 -7 9 -3 6 15 -3 14 0 32 6 39 24
30 -59 139 -156 203 -61 40 -69 41 -77 12z"/>
<path d="M3464 819 c-116 -73 -184 -169 -184 -262 0 -46 1 -48 23 -41 112 34
207 123 228 212 9 38 2 122 -10 122 -4 0 -29 -14 -57 -31z"/>
<path d="M1319 791 c-33 -11 -70 -30 -92 -49 -16 -14 -15 -17 19 -40 140 -95
298 -99 387 -10 23 23 22 25 -20 47 -98 49 -226 72 -294 52z"/>
<path d="M4045 781 c-80 -24 -155 -58 -155 -70 0 -20 85 -71 136 -81 43 -9 65
-8 116 5 66 17 179 73 186 93 2 6 -21 23 -50 38 -69 35 -152 40 -233 15z"/>
<path d="M2290 724 c0 -93 52 -172 141 -216 54 -25 127 -47 100 -30 -10 7 -10
11 -1 17 7 4 18 -2 26 -14 18 -25 30 -27 38 -5 5 14 4 15 -8 5 -9 -7 -17 -8
-20 -2 -3 5 0 12 6 14 8 3 6 6 -4 6 -22 1 -23 9 -2 32 15 17 15 21 -5 53 -34
54 -98 106 -177 142 -40 19 -77 34 -83 34 -6 0 -11 -16 -11 -36z"/>
<path d="M3190 736 c-141 -58 -223 -143 -243 -254 -6 -31 -5 -32 21 -26 122
26 230 93 267 164 17 33 32 140 19 140 -5 -1 -34 -11 -64 -24z"/>
<path d="M1604 604 c-23 -8 -59 -30 -80 -49 l-39 -33 50 -22 c71 -31 181 -52
229 -45 23 4 59 16 81 27 44 22 98 75 90 88 -11 17 -122 43 -205 46 -60 3 -97
-1 -126 -12z"/>
<path d="M3692 601 c-40 -10 -78 -23 -83 -28 -12 -12 51 -76 99 -99 61 -30
182 -22 267 16 11 5 32 14 47 19 34 13 29 28 -17 60 -79 54 -181 64 -313 32z"/>
<path d="M2251 594 c0 -11 3 -14 6 -6 3 7 2 16 -1 19 -3 4 -6 -2 -5 -13z"/>
<path d="M1962 476 c-53 -18 -116 -60 -137 -93 -9 -14 -15 -26 -13 -28 2 -1
35 -10 75 -19 152 -34 261 -11 333 71 45 52 47 58 23 68 -37 15 -237 15 -281
1z"/>
<path d="M3331 481 c-19 -3 -36 -11 -38 -17 -7 -21 56 -92 103 -114 56 -27
204 -42 204 -20 0 7 7 10 16 6 8 -3 29 1 45 9 16 9 34 13 39 10 6 -3 10 -1 10
5 0 6 5 8 11 4 8 -5 8 -1 0 14 -19 35 -92 85 -144 99 -52 13 -183 16 -246 4z"/>
<path d="M2435 413 c-72 -8 -154 -37 -197 -68 -52 -38 -86 -91 -70 -107 6 -6
60 -9 134 -6 131 4 168 15 229 70 30 25 69 86 69 106 0 12 -87 15 -165 5z"/>
<path d="M2950 405 c0 -53 85 -137 161 -159 61 -18 175 -21 185 -5 3 6 22 9
40 7 35 -4 34 6 -1 15 -15 4 -14 5 7 6 16 1 31 -6 37 -16 6 -10 11 -15 11 -11
0 4 -9 22 -20 40 -11 18 -20 29 -20 25 0 -5 -11 5 -25 21 -46 55 -173 91 -317
92 -46 0 -58 -3 -58 -15z"/>
</g>
</svg>
